# Blender v2.80 (sub 75) OBJ File: 'tree.blend'
# www.blender.org
mtllib tree.mtl
o Cube_Cube.001
v -1.000000 0.000000 1.000000
v -1.000000 13.500000 1.000000
v -1.000000 0.000000 -1.000000
v -1.000000 13.500000 -1.000000
v 1.000000 0.000000 1.000000
v 1.000000 13.500000 1.000000
v 1.000000 0.000000 -1.000000
v 1.000000 13.500000 -1.000000
v 0.000000 0.000000 -1.500000
v 0.000000 13.500000 -1.500000
v 0.000000 0.000000 1.500000
v 0.000000 13.500000 1.500000
v -1.500000 0.000000 0.000000
v -1.500000 13.500000 0.000000
v 1.500000 0.000000 0.000000
v 1.500000 13.500000 0.000000
v -3.935704 18.074762 3.935704
v 0.000000 0.000000 0.000000
v -3.273984 15.975211 3.273984
v -3.273984 15.975211 -3.273984
v 3.273984 15.975211 3.273984
v 3.273984 15.975211 -3.273984
v 0.000000 15.975211 -4.910976
v 0.000000 15.975211 4.910976
v -4.910976 15.975211 0.000000
v 4.910976 15.975211 0.000000
v 5.903556 20.031857 0.000000
v -3.935704 18.074762 -3.935704
v 3.935704 18.074762 3.935704
v 3.935704 18.074762 -3.935704
v 0.000000 18.074762 -5.903556
v 0.000000 18.074762 5.903556
v -5.903556 18.074762 0.000000
v 5.903556 18.074762 0.000000
v 5.363390 21.770668 0.000000
v -5.903556 20.031857 0.000000
v 0.000000 20.031857 5.903556
v 0.000000 20.031857 -5.903556
v 3.935704 20.031857 -3.935704
v 3.935704 20.031857 3.935704
v -3.935704 20.031857 -3.935704
v -3.935704 20.031857 3.935704
v 3.629162 23.682518 0.000000
v -5.363390 21.770668 0.000000
v 0.000000 21.770668 5.363390
v 0.000000 21.770668 -5.363390
v 3.575594 21.770668 -3.575594
v 3.575594 21.770668 3.575594
v -3.575594 21.770668 -3.575594
v -3.575594 21.770668 3.575594
v -3.629162 23.682518 0.000000
v 0.000000 23.682518 3.629162
v 0.000000 23.682518 -3.629162
v 2.419442 23.682518 -2.419442
v 2.419442 23.682518 2.419442
v -2.419442 23.682518 -2.419442
v -2.419442 23.682518 2.419442
v 1.381447 24.743725 0.000000
v -1.381447 24.743725 0.000000
v 0.000000 24.743725 1.381447
v 0.000000 24.743725 -1.381447
v 0.920965 24.743725 -0.920965
v 0.920965 24.743725 0.920965
v -0.920965 24.743725 -0.920965
v -0.920965 24.743725 0.920965
v 0.000000 24.743725 0.000000
vt 0.432898 0.572802
vt 0.000144 0.572801
vt 0.000144 0.536962
vt 0.432898 0.536963
vt 0.432899 0.787838
vt 0.000144 0.787839
vt 0.000144 0.752000
vt 0.432898 0.751999
vt 0.432898 0.716159
vt 0.000144 0.716160
vt 0.000144 0.680320
vt 0.432898 0.680320
vt 0.432898 0.644481
vt 0.000144 0.644481
vt 0.000144 0.608641
vt 0.432898 0.608641
vt 0.476194 0.544130
vt 0.519201 0.565633
vt 0.490530 0.587137
vt 0.454690 0.587137
vt 0.419865 0.095061
vt 0.455009 0.125772
vt 0.385299 0.258697
vt 0.310761 0.196258
vt 0.919865 0.095061
vt 0.955009 0.125772
vt 0.885299 0.258697
vt 0.810761 0.196258
vt 0.433186 0.522626
vt 0.433186 0.558466
vt 0.000144 0.501122
vt 0.432899 0.501123
vt 0.461858 0.501122
vt 0.497697 0.501122
vt 0.999856 0.137501
vt 0.999856 0.328214
vt 0.499856 0.137501
vt 0.499856 0.328214
vt 0.519201 0.529794
vt 0.754401 0.117760
vt 0.770131 0.233762
vt 0.701353 0.153748
vt 0.194965 0.000144
vt 0.254402 0.117760
vt 0.201353 0.153748
vt 0.108563 0.041500
vt 0.845081 0.308999
vt 0.951144 0.413116
vt 0.891692 0.057933
vt 0.883176 0.012633
vt 0.694965 0.000144
vt 0.383176 0.012633
vt 0.391692 0.057933
vt 0.270131 0.233762
vt 0.239355 0.264282
vt 0.163337 0.191149
vt 0.739355 0.264282
vt 0.663337 0.191149
vt 0.052338 0.095038
vt 0.806383 0.345137
vt 0.345081 0.308999
vt 0.608563 0.041500
vt 0.451144 0.413116
vt 0.132717 0.230116
vt 0.015978 0.158283
vt 0.209126 0.292260
vt 0.306383 0.345137
vt 0.265275 0.372603
vt 0.552338 0.095038
vt 0.391067 0.461731
vt 0.765274 0.372603
vt 0.709126 0.292260
vt 0.891067 0.461731
vt 0.098119 0.293242
vt 0.000144 0.268375
vt 0.162605 0.335420
vt 0.200024 0.402458
vt 0.632717 0.230116
vt 0.662605 0.335420
vt 0.598119 0.293242
vt 0.826726 0.492559
vt 0.326726 0.492559
vt 0.515979 0.158282
vt 0.120962 0.420241
vt 0.106884 0.387367
vt 0.606884 0.387367
vt 0.574975 0.371108
vt 0.500144 0.268374
vt 0.532995 0.374191
vt 0.217740 0.500835
vt 0.115144 0.461760
vt 0.700024 0.402458
vt 0.717740 0.500835
vt 0.568176 0.423606
vt 0.068176 0.423606
vt 0.032996 0.374191
vt 0.074975 0.371109
vt 0.620962 0.420241
vt 0.615144 0.461760
vn -0.8944 0.0000 -0.4472
vn 0.4472 0.0000 -0.8944
vn 0.8944 0.0000 0.4472
vn -0.4472 0.0000 0.8944
vn 0.0000 -1.0000 0.0000
vn -0.5635 -0.7766 0.2818
vn 0.5635 -0.7766 -0.2818
vn 0.4472 0.0000 0.8944
vn -0.4472 0.0000 -0.8944
vn 0.2818 -0.7766 -0.5635
vn -0.2818 -0.7766 0.5635
vn 0.8944 0.0000 -0.4472
vn -0.8944 0.0000 0.4472
vn 0.8238 -0.3895 0.4119
vn -0.4119 -0.3895 -0.8238
vn 0.8238 -0.3895 -0.4119
vn 0.4119 -0.3895 -0.8238
vn 0.5635 -0.7766 0.2818
vn 0.2818 -0.7766 0.5635
vn -0.2818 -0.7766 -0.5635
vn -0.5635 -0.7766 -0.2818
vn -0.8238 -0.3895 -0.4119
vn -0.8238 -0.3895 0.4119
vn 0.4119 -0.3895 0.8238
vn -0.4119 -0.3895 0.8238
vn -0.4309 0.2677 -0.8618
vn -0.8618 0.2677 -0.4309
vn -0.8618 0.2677 0.4309
vn 0.8618 0.2677 -0.4309
vn -0.3473 0.6300 -0.6946
vn -0.6946 0.6300 -0.3473
vn -0.6946 0.6300 0.3473
vn 0.6946 0.6300 0.3473
vn 0.8618 0.2677 0.4309
vn 0.4309 0.2677 -0.8618
vn -0.4309 0.2677 0.8618
vn 0.4309 0.2677 0.8618
vn -0.4175 0.8844 0.2088
vn 0.4175 0.8844 0.2088
vn 0.2088 0.8844 0.4175
vn -0.2088 0.8844 0.4175
vn 0.6946 0.6300 -0.3473
vn 0.3473 0.6300 -0.6946
vn -0.3473 0.6300 0.6946
vn 0.3473 0.6300 0.6946
vn 0.0000 1.0000 0.0000
vn -0.4175 0.8844 -0.2088
vn -0.2088 0.8844 -0.4175
vn 0.4175 0.8844 -0.2088
vn 0.2088 0.8844 -0.4175
usemtl Material
s off
f 13/1/1 14/2/1 4/3/1 3/4/1
f 9/5/2 10/6/2 8/7/2 7/8/2
f 15/9/3 16/10/3 6/11/3 5/12/3
f 11/13/4 12/14/4 2/15/4 1/16/4
f 18/17/5 15/18/5 5/19/5 11/20/5
f 14/21/6 2/22/6 19/23/6 25/24/6
f 16/25/7 8/26/7 22/27/7 26/28/7
f 13/29/5 18/17/5 11/20/5 1/30/5
f 5/12/8 6/11/8 12/14/8 11/13/8
f 3/4/9 4/3/9 10/31/9 9/32/9
f 3/33/5 9/34/5 18/17/5 13/29/5
f 8/26/10 10/35/10 23/36/10 22/27/10
f 2/22/11 12/37/11 24/38/11 19/23/11
f 9/34/5 7/39/5 15/18/5 18/17/5
f 7/8/12 8/7/12 16/10/12 15/9/12
f 1/16/13 2/15/13 14/2/13 13/1/13
f 21/40/14 26/28/14 34/41/14 29/42/14
f 23/43/15 20/44/15 28/45/15 31/46/15
f 26/28/16 22/27/16 30/47/16 34/41/16
f 22/27/17 23/36/17 31/48/17 30/47/17
f 6/49/18 16/25/18 26/28/18 21/40/18
f 12/50/19 6/49/19 21/40/19 24/51/19
f 10/52/20 4/53/20 20/44/20 23/43/20
f 4/53/21 14/21/21 25/24/21 20/44/21
f 28/45/1 33/54/1 36/55/1 41/56/1
f 29/42/3 34/41/3 27/57/3 40/58/3
f 31/46/9 28/45/9 41/56/9 38/59/9
f 34/41/12 30/47/12 39/60/12 27/57/12
f 20/44/22 25/24/22 33/54/22 28/45/22
f 25/24/23 19/23/23 17/61/23 33/54/23
f 24/51/24 21/40/24 29/42/24 32/62/24
f 19/23/25 24/38/25 32/63/25 17/61/25
f 38/59/26 41/56/26 49/64/26 46/65/26
f 41/56/27 36/55/27 44/66/27 49/64/27
f 33/54/13 17/61/13 42/67/13 36/55/13
f 36/55/28 42/67/28 50/68/28 44/66/28
f 32/62/8 29/42/8 40/58/8 37/69/8
f 17/61/4 32/63/4 37/70/4 42/67/4
f 27/57/29 39/60/29 47/71/29 35/72/29
f 30/47/2 31/48/2 38/73/2 39/60/2
f 46/65/30 49/64/30 56/74/30 53/75/30
f 49/64/31 44/66/31 51/76/31 56/74/31
f 44/66/32 50/68/32 57/77/32 51/76/32
f 48/78/33 35/72/33 43/79/33 55/80/33
f 40/58/34 27/57/34 35/72/34 48/78/34
f 39/60/35 38/73/35 46/81/35 47/71/35
f 42/67/36 37/70/36 45/82/36 50/68/36
f 37/69/37 40/58/37 48/78/37 45/83/37
f 51/76/38 57/77/38 65/84/38 59/85/38
f 55/80/39 43/79/39 58/86/39 63/87/39
f 52/88/40 55/80/40 63/87/40 60/89/40
f 57/77/41 52/90/41 60/91/41 65/84/41
f 35/72/42 47/71/42 54/92/42 43/79/42
f 47/71/43 46/81/43 53/93/43 54/92/43
f 50/68/44 45/82/44 52/90/44 57/77/44
f 45/83/45 48/78/45 55/80/45 52/88/45
f 58/86/46 66/94/46 60/89/46 63/87/46
f 66/95/46 59/85/46 65/84/46 60/91/46
f 61/96/46 64/97/46 59/85/46 66/95/46
f 62/98/46 61/99/46 66/94/46 58/86/46
f 56/74/47 51/76/47 59/85/47 64/97/47
f 53/75/48 56/74/48 64/97/48 61/96/48
f 43/79/49 54/92/49 62/98/49 58/86/49
f 54/92/50 53/93/50 61/99/50 62/98/50
